<svg viewBox="0 0 48 48" fill="none" xmlns="http://www.w3.org/2000/svg">
<g clip-path="url(#clip0_7473_578809)">
<rect width="48" height="48" rx="24" fill="#CCCCCC"/>
<path fill-rule="evenodd" clip-rule="evenodd" d="M32.4706 22.4706C32.4706 27.1488 28.6782 30.9412 24 30.9412C19.3218 30.9412 15.5294 27.1488 15.5294 22.4706C15.5294 17.7924 19.3218 14 24 14C28.6782 14 32.4706 17.7924 32.4706 22.4706ZM9.6001 46.5881C9.6001 40.0387 14.9095 34.7293 21.4589 34.7293H26.5413C29.8314 34.7293 32.8087 36.0692 34.9571 38.2331C35.2142 38.4922 35.4596 38.763 35.6921 39.0448C37.3838 41.0947 38.4001 43.7228 38.4001 46.5881V52.5176C38.4001 54.3888 36.8831 55.9058 35.0119 55.9058H12.9883C11.1171 55.9058 9.6001 54.3888 9.6001 52.5176V46.5881Z" fill="white"/>
</g>
<defs>
<clipPath id="clip0_7473_578809">
<rect width="48" height="48" rx="24" fill="white"/>
</clipPath>
</defs>
</svg>